<?xml version="1.0" encoding="UTF-8" standalone="no"?>
<svg
   xmlns:dc="http://purl.org/dc/elements/1.1/"
   xmlns:cc="http://creativecommons.org/ns#"
   xmlns:rdf="http://www.w3.org/1999/02/22-rdf-syntax-ns#"
   xmlns:svg="http://www.w3.org/2000/svg"
   xmlns="http://www.w3.org/2000/svg"
   xmlns:xlink="http://www.w3.org/1999/xlink"
   xmlns:sodipodi="http://sodipodi.sourceforge.net/DTD/sodipodi-0.dtd"
   xmlns:inkscape="http://www.inkscape.org/namespaces/inkscape"
   version="1.1"
   id="svg2"
   width="266.66666"
   height="266.66666"
   viewBox="0 0 266.66666 266.66666"
   sodipodi:docname="logo_title.svg"
   inkscape:version="1.0 (6e3e5246a0, 2020-05-07)">
  <metadata
     id="metadata8">
    <rdf:RDF>
      <cc:Work
         rdf:about="">
        <dc:format>image/svg+xml</dc:format>
        <dc:type
           rdf:resource="http://purl.org/dc/dcmitype/StillImage" />
        <dc:title />
      </cc:Work>
    </rdf:RDF>
  </metadata>
  <defs
     id="defs6" />
  <sodipodi:namedview
     inkscape:document-rotation="0"
     pagecolor="#ffffff"
     bordercolor="#666666"
     borderopacity="1"
     objecttolerance="10"
     gridtolerance="10"
     guidetolerance="10"
     inkscape:pageopacity="0"
     inkscape:pageshadow="2"
     inkscape:window-width="1848"
     inkscape:window-height="1053"
     id="namedview4"
     showgrid="false"
     inkscape:zoom="1.6433679"
     inkscape:cx="279.01682"
     inkscape:cy="95.752294"
     inkscape:window-x="72"
     inkscape:window-y="27"
     inkscape:window-maximized="1"
     inkscape:current-layer="g10" />
  <g
     inkscape:groupmode="layer"
     inkscape:label="Image"
     id="g10">
    <path
       id="path831"
       d="M 7.152109,263.77387 C 5.5857692,263.01543 3.6357692,260.92782 2.8187758,259.13471 0.71945297,254.52719 0.71455892,12.150203 2.8136957,7.5430995 3.627895,5.7561268 5.7561268,3.627895 7.5430995,2.8136957 c 4.5972905,-2.09466562 246.9831705,-2.09466562 251.5804705,0 1.78696,0.8141993 3.9152,2.9424311 4.7294,4.7294038 2.09466,4.5972905 2.09466,246.9831705 0,251.5804705 -2.63316,5.77914 -5.77098,6.20976 -45.24904,6.20976 h -37.2706 v -8.11119 c 0,-19.10043 9.5432,-42.55227 26.35012,-64.75382 11.53521,-15.23774 17.13905,-26.18456 19.26996,-37.64294 C 231.85658,128.45987 211.70558,99.395475 182.33809,90.475374 168.40968,86.244747 154.38588,88.048843 136,96.436552 127.19408,100.45385 82.957059,126.57699 70.36303,135.19693 42.505578,154.26389 37.540463,183.61796 57.095417,213.6359 c 6.732372,10.33456 12.396355,23.88871 15.474352,37.03076 1.288153,5.5 2.627358,11.05 2.976013,12.33333 0.591799,2.17831 -1.564611,2.32734 -32.455932,2.2431 -19.870615,-0.0541 -34.2275689,-0.64114 -35.937741,-1.46922 z M 49.771745,142.18129 c 6.838831,-2.85744 11.562491,-9.37697 11.556603,-15.95026 C 61.318161,114.85879 53.587288,108 40.779274,108 c -6.323432,0 -8.013159,0.57949 -12.066213,4.13812 -4.311698,3.78572 -4.713062,4.75651 -4.713062,11.39955 0,16.27975 11.506773,24.60391 25.771746,18.64362 z m 42.201675,-28.5167 c 12.752,-6.40682 14.39751,-24.540484 2.845856,-31.361539 -9.589741,-5.662577 -23.526488,-3.29313 -27.661359,4.702828 -2.815771,5.445099 -1.886007,17.149371 1.751563,22.049411 5.28603,7.12064 14.428714,8.94779 23.06394,4.6093 z m 42.6318,-23.1236 C 141.02822,86.931063 144,81.753817 144,74.174003 c 0,-21.286768 -34.57784,-24.364206 -36.95334,-3.288857 -1.99563,17.705144 12.559,28.08607 27.55856,19.655844 z m 93.38247,-3.067211 c 7.73784,-3.815772 13.92084,-12.032809 17.30941,-23.003713 6.79795,-22.009219 1.07792,-33.739899 -17.5156,-35.921076 -19.62432,-2.302097 -30.7414,9.119777 -32.71001,33.6068 -0.66695,8.295986 -0.33711,10.419136 2.62333,16.885575 3.42227,7.475206 6.35728,9.990317 13.63851,11.687257 5.15073,1.200413 9.24062,0.401106 16.65436,-3.254843 z m -52.65436,-8.842797 c 4.93237,-1.903791 10.18383,-8.776366 10.92424,-14.296552 1.48237,-11.051845 -5.95261,-19.227292 -18.19699,-20.00927 -12.98201,-0.829085 -21.17302,7.581736 -19.22818,19.744162 2.21516,13.85278 12.9935,19.775237 26.50093,14.56166 z"
       style="fill:#000000;stroke-width:1.33333" />
  </g>
</svg>
