<svg xmlns="http://www.w3.org/2000/svg" height="512" width="512"><path d="M256 511.888c-4.336-.243-7.863-.52-10.752-.84-22.262-2.483-41.567-10.392-56.616-23.198-2.814-2.395-7.858-7.502-10.26-10.4-11.995-14.417-19.784-32.26-23.995-54.965-.878-4.733-1.46-9.03-2.282-16.847-3.094-29.41-7.58-52.825-14.7-76.755-7.587-25.5-18.027-49.02-29.68-66.87a111.54 111.54 0 0 0-6.824-9.426c-7.713-9.674-13.334-23.17-14.97-35.94-.166-1.294-.35-4.005-.408-6.024-.638-21.883 10.506-41.346 32.48-56.722 6.155-4.307 10.237-6.607 24.595-13.86l48.565-25.176c14.492-7.61 22.977-11.828 30.998-15.415 17.725-7.926 31.43-11.757 47.778-13.356 4.807-.47 15.343-.58 19.142-.2 15.01 1.505 31.092 7.43 45.134 16.63 16.17 10.595 28.08 24.322 34.36 39.594 8.132 19.783 5.643 40.74-7.307 61.537-2.897 4.652-7.364 10.593-11.252 14.965-.92 1.035-3.926 4.212-6.68 7.06-12.16 12.576-19.927 21.493-27.414 31.468-14.346 19.112-22.168 36.017-24.068 52.015-.376 3.165-.428 10.178-.097 13.082 1.274 11.184 4.832 21.06 12.07 33.506 2.66 4.573 8.135 13.055 17.315 26.824 17.64 26.456 26.503 42.33 32.007 57.323 5.96 16.23 6.5 29.376 1.608 39.796-4.095 8.74-12.085 15.433-23.452 19.644-6.243 2.312-17.26 5.51-25.13 7.29-11.33 2.566-21.016 4.05-31.906 4.89-3.467.267-15.607.503-18.26.355zm-61.74-227.903c5.347-3.56 8.843-6.004 16.753-11.703 9.67-6.967 12.212-8.587 15.255-9.72 1.354-.505 1.922-.607 3.787-.683 1.955-.08 2.38-.036 3.883.395 3.164.908 5.905 2.367 13.593 7.238l13.275 8.287c.036-.036 1.76-2.902 3.83-6.368 9.16-15.34 9.9-16.317 12.34-16.52.867-.072 1.56.105 5.212 1.33 2.317.777 4.48 1.46 4.808 1.52.547.097.704-.008 1.923-1.292 3.218-3.388 6.502-8.082 10.665-15.245l2.943-4.93.536-.8-1.858-2.33c-3.633-4.554-5.73-6.906-14.784-16.572-3.54-3.78-5.123-5.347-5.226-5.176l-24.704 39.568c-.092.01-8.214-12.794-18.05-28.453l-17.884-28.472-15.22 25.366-15.364 25.414c-.08.027-6.57-5.795-14.423-12.938l-14.444-12.884c-.392.242-13.42 17.455-19 25.115l-7.313 10.335-1.184 1.77 3.836-.13c7.015-.24 12.972-.783 18.895-1.725 7.22-1.15 8.076-1.25 9.976-1.17 2.488.106 3.58.62 5.336 2.512 1.665 1.794 2.805 3.677 7.75 12.802 6.32 11.66 10.21 18.514 10.433 18.385.11-.063 2.104-1.384 4.434-2.936zm-45.756-63.468l10.342-15.575c.074-.077 6.434 5.98 14.133 13.46l14.12 13.648c.066.028 7.57-12.585 16.677-28.028l16.715-28.097c.088-.01 7.923 12.564 17.412 27.942l17.42 28.047c.116.06 20.992-32.926 23.798-37.602.087-.145 5.72 6.426 15.38 17.945l15.54 18.552c.286.365.398.265 3.123-2.792 3.926-4.403 7.42-8.14 13.26-14.178 5.8-5.997 8.18-8.636 10.583-11.734 7.944-10.237 12.305-19.516 13.997-29.776.268-1.625.34-3.104.336-6.87-.004-4.177-.062-5.118-.442-7.247-1.084-6.073-3.31-11.838-6.867-17.788-11.48-19.198-32.222-36.345-49.96-41.302-4.7-1.316-9.04-1.656-16.007-1.257-22.9 1.314-45.093 8.412-78.404 25.078-11.48 5.743-16.864 8.614-25.728 13.716l-32.052 17.81c-7.09 3.64-9.27 4.86-12.842 7.185-5.724 3.724-10.606 7.7-15.44 12.54-5.358 5.378-9.03 10.26-11.555 15.362-2.207 4.46-2.9 7.117-3.24 12.25-.2 3.27-.206 3.335.266 5.214 2.056 8.17 11.033 20.885 27.54 39l2.918 3.203 18.975-28.715zm-51.146-75.22c-4.482-.606-8.913-2.432-12.578-5.182-1.844-1.384-4.7-4.407-5.953-6.303-3.192-4.826-4.647-10.043-4.407-15.8.168-4.02.965-7.16 2.69-10.592 3.705-7.38 10.233-12.38 18.516-14.185 2.5-.544 7.908-.5 10.526.086 10.47 2.344 18.27 10.287 20.455 20.832.54 2.6.5 7.63-.08 10.236-1.22 5.484-3.347 9.372-7.273 13.298-3.913 3.913-7.984 6.142-13.238 7.246-2.146.45-6.593.633-8.658.354zm6.717-16.46c5.14-.975 11.502-3.738 13.84-6 .97-.943 1.61-2.14 1.61-3.02.001-4.215-10.165-16.615-15.672-19.115a5.04 5.04 0 0 0-1.767-.363c-4.753-.02-18.327 13.8-18.377 18.725-.013 1.22.48 2.16 1.828 3.482 2.022 1.985 5.59 3.995 9.483 5.344 3.64 1.26 6.084 1.52 9.057.955zM151.906 112c-3.227-.404-7.166-1.723-9.883-3.31-7.018-4.097-11.7-10.892-13.014-18.9-.36-2.184-.244-7.29.21-9.32 2.31-10.34 9.988-18.084 20.264-20.44 2.454-.563 6.93-.703 9.487-.297 2.765.44 4.986 1.137 7.524 2.367 14.155 6.856 19.223 24.384 10.9 37.7-3.77 6.032-10.164 10.434-17.2 11.843-2.112.423-6.288.597-8.29.347zm9.426-16.36c3.922-.856 8.42-2.74 10.666-4.468 3.098-2.384 3.254-4.27.7-8.476-2.105-3.467-6.15-8.29-9.454-11.274-3.517-3.176-5.71-4.48-7.466-4.44-2.47.056-7.944 3.892-13.03 9.132-3.678 3.79-5.824 6.855-6.2 8.846-.413 2.246 2.662 5.027 8.384 7.582 3.563 1.59 8.25 3.096 11.012 3.534.988.157 3.652-.06 5.38-.436zm205.974.164c-4.645-.414-10.194-2.273-14.74-4.938-2.905-1.702-9.68-6.26-11.585-7.795-3.523-2.836-6.208-6.05-7.515-8.992-3.012-6.782-2.195-15.996 2.58-29.08 4.637-12.708 11.025-23.256 18.875-31.165 6.584-6.634 13.51-10.758 20.75-12.358 2.48-.548 7.83-.598 10.155-.096 11.79 2.545 19.563 12.324 21.902 27.55.513 3.338.706 10.722.382 14.614-1.04 12.503-5.402 26.64-11 35.662-6.216 10.017-14.49 15.657-24.384 16.62-2.06.2-2.98.197-5.418-.02zm15.847-21.056c2.938-.94 5.408-2.73 7.16-5.187 4.47-6.264 6.062-18.193 4.03-30.2-1.874-11.088-6.2-18.952-11.33-20.546-1.49-.464-3.924-.456-5.885.02-2.796.678-5.462 1.944-8.94 4.247-7.56 5.004-15.07 13.445-18.92 21.268-2.063 4.2-2.914 7.34-2.914 10.776 0 2.427.295 3.727 1.31 5.79 2.114 4.288 6.298 7.27 14.783 10.54 4.896 1.887 8.38 2.95 11.67 3.565 2.334.436 7.305.29 9.035-.262zM219.576 86.093c-6.16-.668-11.588-3.167-15.88-7.3-3.963-3.825-6.512-8.426-7.687-13.873-.48-2.225-.476-8.073.006-10.278 1.154-5.274 3.55-9.697 7.27-13.417 3.692-3.692 8.08-6.094 13.232-7.246 2.163-.483 7.2-.582 9.583-.187 10.907 1.814 19.303 9.905 21.65 20.865.55 2.573.588 7.282.078 9.918-1.397 7.224-5.707 13.584-11.89 17.543-2.49 1.595-6.406 3.107-9.395 3.63-1.736.303-5.62.502-6.965.356zm5.986-17.964c6.078-1.24 11.486-4.074 12.75-6.684.614-1.268.45-2.314-.725-4.66-3.02-6.025-11.434-14.367-15.515-15.383-1.94-.483-4.232.878-8.24 4.894-4.713 4.722-8.795 10.69-9.45 13.82-.452 2.153.723 3.767 3.83 5.266 5.424 2.617 12.496 3.736 17.353 2.746zm66.372 8.278c-8.968-.736-16.985-6.15-21.14-14.275-1.807-3.533-2.668-6.752-2.874-10.745-.603-11.697 6.815-22.49 18.025-26.225 5.266-1.755 11.253-1.762 16.52-.018 9.463 3.132 16.305 11.28 17.846 21.255.354 2.29.24 6.812-.224 8.938-1.58 7.228-5.74 13.247-11.868 17.17-4.535 2.904-10.632 4.364-16.284 3.9zm5.976-18.247c8.404-1.433 11.76-4.717 10.055-9.84-1.335-4.012-5.9-10.627-9.353-13.58-3.565-3.042-5.37-3.116-8.78-.36-3.253 2.63-7.63 8.702-9.196 12.766-1.058 2.742-1.008 4.21.194 5.728 2.138 2.7 9.09 5.61 13.503 5.654.74.007 2.35-.158 3.576-.367z"/></svg>
